<mxfile host="app.diagrams.net" agent="Mozilla/5.0 (X11; Linux x86_64) AppleWebKit/537.36 (KHTML, like Gecko) Chrome/129.0.0.0 Safari/537.36" version="24.7.16">
  <diagram name="Page-1" id="TJtlTLlyJsmjUcyZ8gw8">
    <mxGraphModel dx="1362" dy="759" grid="1" gridSize="10" guides="1" tooltips="1" connect="1" arrows="1" fold="1" page="1" pageScale="1" pageWidth="850" pageHeight="1100" math="0" shadow="0">
      <root>
        <mxCell id="0" />
        <mxCell id="1" parent="0" />
        <mxCell id="AEFiVERRSoHVRlvVFMWc-3" value="" style="shape=image;verticalLabelPosition=bottom;labelBackgroundColor=default;verticalAlign=top;aspect=fixed;imageAspect=0;image=data:image/png,iVBORw0KGgoAAAANSUhEUgAAAOQAAADdCAMAAACc/C7aAAAAkFBMVEX///8ybOUvauVBdOYqaOQlZuQjZeQZYeQeY+QTX+P4+v7l6/vG0/bi6fv5+/7c5Pq4yPQ0buXr8Pzz9v2nu/KYsPBMfOeTrO+HpO7C0Pa0xfTW3/l+ne3Q2/iEoe3L1/d0lutahelljOqgtvGtwPNukutIeedUgehKe+ePqe8AW+NhiekAU+Jpj+oAV+IATuGzbKSBAAARKklEQVR4nO1d6YLyKhLtIARwj2u7tB331r5+8/5vN25JgEAoSNTvznj+dauEYilObeTj44033njjjTfeeOONN974f0VnHY9qv4dJ+9UdeRymNR5ihDChfNF6dWceg0FEUZAA0+3/npj1NQ4DCfi4mr26V5WiPw5ZkAOmy69X96wy9D5piPIyXsTko+are1cJGnNKtBJegeiu++oelkYn5gUiXsVk0fTVvSyF2YriYhFvYgaDf+3B+bXkABGvCPGw/uru+qA5gsxiJiYb91/dZVd0d1SvUM2LltDP3qu77YJpxBxFvILQeePVXQeiPQi8RLyKyePOq/sPQH1NNOQGDkx//3a21x+z0C6IRUy+/5tp0Jm/Ed+FKs/mbvJqWQwo5m9uQLT2N9KgztbG31zFDDavlknB1wpMbuBgeP0Xsb3vvRO5gSOkw7+EBk1+HiTiGShkfwMNmkau/M1RTHJ8NQ3aPFjEK15Kg+prnefGBozdhwXzF9Gg/pB4UFTCt/GOOv/sLOby++ki9g7ch9yw+HIoNH0UFaY/z6VBvuQGr26/n3GfXz/V6eVPbmiiQFZ+h87TaNDs5E9ujkkjA29bhQXrh4v4vS/D33jSzKaEzcnYY2nQxM05ZRbSfyaDKw06PEzMbq3syc+Tvn2WI4JnGrR4CA2qgtzQ5Ejflma7mMZVx/7aa+ztnBLAkiOgfFOX2N+pUhq0waWcUynI8N6g1zmZA+anykyU/t6Dh+l7Fd9abFXWIK/IS9ILKjMX0ejW5Fc1C+MCPizuPQztqDqTGNVubU5L+y0zHKvgQNsq/VPRrc1Sx6QKXl7LflWjI25A+BagG1Y5cPi3tJCnSv03rF+9kMGxrN+gd6yyO4mQ40qFxJ8lhaxSRZyX6+7ealVHyA1RSSHjSlcrT/J2RpU2S0vy2Cr7knKB8y6oUp1lbNEPvYrWFUKEUfpnkbTb/4fTkHj47bQgiyIZrJhUQE0QDin5WUybLSHBo91rTg/7kLIqBE2IlCcOZdXgeQbD1cBoLcwGMWHlY5q8lA29L/d8zMK5NWrcnIdlgym0TGi6XUo/EL7swmJvk6WXFzd7UhmWXmQtkLB4+AmdO5DK1sKSbEDC0Lx18LKEkGvjg0k0HnwG5scS7hpyqw+ZuTnEDt3u3DjkCJeI1hp9wHh7/XxuOGEwjT1M9v7CtDdJ7Xrcd4wuGFqCvpr1+/0LUy21pT+ez2wstc4ykqzGienYZgNvGTumNsO0zWleNWHq/8SPKctPJtmnH0eGDmVcyhlGP7fAowaqlGxXikn2f9WH4l224UampeXP0eemLckEl8On3Cla1u75WMvrB0fCSV8zdCjg3m67mmncJJW9EDvFTVy5PxssVtmfk3jwberXDAuDK8k4M1Jpb45eYDBT0RP4mT4aE73GmY1/GGVhLftP8xgyWvucaPlYf5QeJqQmfKNuHHV/w7mInVMxgDY4ovuo6yan8xndUu4Sk/mCK81AmPFfLSk63R/NlsKnM2SmH6imaQWCQnZOfwWBJoyclxjeafLIu7v08BMXebrwMGMHzdBc9gA5MwrhX2texPyYJ0c3qrJb7+ghk6kxPy25RsZNINZnxdkHwumECNdQh8UxGo+FXIhuVGz1Mb+8ib7NvRPKu32QG0ulY+K+kV0D5ynLDdBA/E9rZLPePTm6WZUlQHRZcCae6YvSj3H2oWrfEFykHsd2W8zT+2pm50LT5oDLIBd3lwY7p7npylQZ0rCs1PvvvYSEuZW53r/SXuXXQSjSvfzxRJDegTCBBX+pV7ASaMayvea3rUijmaUtjDStc13sJjmfrP3wCfy0oF4Bmk+U+tYOvuSk+NF9g2uOdGgQ34ujg33nebLR1Z9oTCwJ/dVuBprraQPuFPUQcg521DE1feigX2HSrtGnRtCRcmI2IrDvx8ePbjLd8iCx+tuZbksGVPT56OIPiOeyrb7gAScPjt6Du5VJnlG1Y82KlcyhRX4YSKSh9/AF5cHRjZ6GHJj2qOzmTXwuUvFciBLxua6dtqEcOg/04ywkOIRoaruXyxk5ih+rEXXMDNmsU/CS4s51pnuoU5sbD2HVbJCEVPpOf41WhPaw0YE6c3ToKVnEGTuROF0ISUJKH/EC3xd44zhz9C9oy7TwPoS5MJnyuhYt8rBW6Gs3+wNkOPvRIez82nMpapYXeJLpH3nOhVHU8JyGqIi7wF2JsKOQ0KQPaR/M/pPPKu7/pj6Arfj/NPOM4HxIqsUkTQudSlc/OqxVxd85wjqH5OC+ZENpy9ytZkRXeY3zxZDUX+iycuTo0Aw/0Q6+agi61TRWu643Jd3mSl4x1fSry5W1Dc0wcOToUHYupXztLjMWLjXet8ORsaOiQPs1zvhSo3E2V5G4OCRL4OZx86MDyZSkdpq32Zc8pQl6g0HeVzXb6PbQ4TZtWPBEg08RNz86cKtLtn5iPOGoTDAkTuQRjYo6kNuZWJMWfSD3F1drZvgh5p82nYV7pO2utz5zcOLoTeDyEPeAyLi5Z6JC/UdoRDz1gLmjoo/eCiA7J+JpJtqfSNUyMPSk/GGRS0G1fejgRwdmtohbQHEJ8bG5dRM6RFqU0tqDchP4pVt1YJoUFZSZuqCo1josQlM9DcXNAExkDOGFXHbf+V0Q4Te5oyx0dGlPc74EUb8OYPxVOniKAdzm+JT9pJ2ffDJyMWKHeVYTCi4HqFXEwA8EFhmRQ/YTnZdWH67UY6ERQtRrfSCzg3N04JYUR1prDuEAquw+dROFRN880HkI5ugN6KgJZpY+dZ6o2ud7v7xAZfEdPfngwleKg6UpMFTfQY1UUTEYtJ/CmHsMX6FaZAZnlUhFoXV6UI6ucYnq+yAsRj3vUhlILfmWkiRiYFjiqQfNvKVAPQA1xEnd9hsqH1unrKNcVhBEHzQQ2CG0lATI0cF55+LK0OkqwuW9NxQWJZJ1UiegmhZEzQatfAJydCg7D8SsElVz4JBHC9kY6f2RBFA0RDcOc3dPiaoSWuqNdOHSPKALQ9pwcp4DDZeDvM0vnQIaXT8b/jAp8V4kaVBtGBxBqa9QX4OUH5QKeZ1CfaKVlD3Ltad2rzsn2YR6CclAHB2cdy7uybvrg4b7tZFzSE43ZBzw84TeKylExwP4ZgIQR4ey87PuEPpZQ+cpDOb6KdS0XJyR0pvG7DyhouKBuiVhuS7wAk7RQt3TgilMIGgn+3h/jWt/hOMALGSAzG2mgF8BIJIBY16niH2a5ID/gbiBxGABvORSv9tlwMPo7tntk9uFqMTjdi94+R+AoztkW2hyW6xo7mjIdWmRNvyAhQT40cGqOgh3XreYN/3uYBnDi+TtHB3KzoPjs6/2HkFVj92PvrOzc4RJyMnTL7RsbwPOIDWXVo5eL/KdE8Yo58faajFtveSWx1Z3cdrxI79UmBZ082BppoCd02i++W71wN6pfqc73u5P1lXdicMoHk5acLdXuzfrzrFRTGuui/k4og57sDMZnnaUXjLTsSFXNPvupaoQE0bZz3Y46cBXyMK4R21+dCM7h9Vh1luTYRxdxUv3juXaiiyXBl1EpVG8Bs6qMQpk8aNr3Kf3DljLhvuTdbwLKcuVVYbFh3PuUThkPNxth9aVY/TFWjijsQSNWGMb/WOoHyELZ9A7ThDWBeaVJ5rWq8WPbjRoVI3V6C5G417Plvd4FbL42DJpAWnNNXvDWm0+lVsy5zgW+9GNDFGykFvD64lFKBfJRUdviGLLjBiyHiS/w9efs+GFSHgcbQQ5zeSsmFWbHXVpGWZ785Pdsii1pk/Hs0bT9OW2Uu5lmsKAGD0lGrBtNiWKU18LqAAdn7V7vxlzseZW8o19a3391iIq7c/kZGtxsjENxrP+R/u7gMwWZtkVltyHeLRjahWKZKHqplItxB3WoqWymHQZ2FJ+j1oZR2i4C4oS8IvVZGFCBNKUOUirapb/OQrlIy8+9w0rJ6fGFyHPvyYOoqu4gArpfHOD3Ju83lJCPrfLqLC8hDVhOS6l7Dlf6RAWWg/ul0VJTKifOw4UX8RdsVG5E7nUKCJpZPfLYIu1KzBqLQBLHuuJMugKUeqmOkb6d26qJPIJrsLJnhoWyehSQ5BAJjSxPCkKq0+VvlJKomy6o8ST3SfSZmvFYKdYAiR5G9o1OU1FalxwK8pJ8XJ8kkkxG4875WyuAWhsXuyTdEg0xP7KWq4utK1chiTmzhHZOwzOs08R2ozmj43zhVFILn4RR14e0k9xlchFR0KIFUeSSenRH0CwOXa+xI3IpL+bBX9O4v9lZ6dsKWRpZQhJA9MH176kDVDIDTk7d40tG1PpfSCyoa0cT1zitImxjkI5j9Rd63CQN7jnfi+WUq11T66S1416TmDpdLkzNxzIOqPrvFgpMKnPXZ+pFRnNK7GUNVKO2MrHy22wlKznnvNiheeduW92qtD+a7kvFXusy7AWfzE8qwJ6klv5qLkuVojSSWC+qMkENY23vaUybdUYf9JM92i+lsn50EbMJTPc/a7HXF3a9Cj+R8cXkcTeVrnqybH7UDuFoPruF8mF6iCKKqSubY+I1Cbnk9dc2mSBumlscDdvECpw6R70h++xgH91nXtA1C1thbvywbqCkBtMJToFTi7VnoE831XGj4+Fu9WFTBNj1CDGCtNJ4b00WjCfG6TAtbApEDZcrPSPoSlMDaO/8TA9vMo0+oHzYCKmfVK/uYgujlrxm+gSDTBljBzcZXRVOgkM3uJCKY2lEr3JYR8QTu9AtXj9bQrrbN2vziXWoIIJ7gruUoFdEHzrt1qd2Rmtou3TqrmTZ+xS2qPg090bEpCg3AuwNu4q53xIl3nbxNLnpl4+94+199TrmGBPLDWubfj9IgII9n3owOvO3jKXV17Q8nqnjfu1Bne4H1tnhHE5Gf2Uj3MtfAr4HRgZyiidBAeP53rfKetzgX4ppZNg5a58suUKSzFLFRWw4lUE90p+y/XAWflk9vnkz2pqk7O3Wabf9/DplFQ6CZyVT+q9mdQQZvR3MzOdKfWv9Z4yHC4SNyK0JiVBeaWTwNHsSSfy915Nz2i4HHZn8t5pzLrj/fmT6wLFx7tN7ziV2P2iISOGTo9OJlIYm1seEsM/q3g+n8e/O8yuGU35gXFzvGhurvKHi4839U/ml97Z9sCEEIzzgeIkl8HJJVGN0knh4BxMohzwW7YuSFNa4Dd/BbqLQ8qgAVY+LDG2oEU0SY/vs9IG/6w6pZMgVztuQOr9d0hmvyIN5kEXLC73lhAtgMqHJ55J5xeEpVzwE1g3/ogXbYJelcZSL4Qz185iYKCqDb+rTq2AKJ90OtxD1lnwGULTtdekVoCefRllmaY+b/9Jn2T/Kiv3bqICfFtnJ4vyetgT2QK01m1gWCmoF9Y25ZM6eOs+hmEaGjlYRgg9ROkksCUUpBWa8CI58ddJ121HLKTmrAQsCQVJoBd+ootIkoxsF31U9Y5UE2zK55Zo1HZkO+mvrwfQt2VHPk7pJLAlFITReDP3fk8WixZDm1Oy1KuXgBhYL9DXvKEGDqK/VyEDQs7XuHpgXukrKZ1R5sVLDnDPZqoQxlfLVAyPhILKwEq/IggKTa75k0CeoHQSeASCK4F0tcHD4Z7NVImMoATI6uAVmSmLo0c5fBm8Qvkwa0Zy1fBIKCgJUv714c5wzworBxS9olbcPZuplIxPVjoJnqp8nq10EtS9Egr8AM26rh7PUz4Ot31WDp+EAh+4ZF1XD5+EAg8ZnbKuq4dXNpMrjmVeqF0BnqF8fBMgq0PDJxXOCSx+tYzwmJ4vXO9ufgyaudcTVghkvx3jOegtHyUmIlWl6VSA5p6HBKNqgQkN3a9+eyQa6/m+Vi1OhxefHG+88cYbb7zxxhtvvPHGI/BfAusFQEsA1QcAAAAASUVORK5CYII=;" vertex="1" parent="1">
          <mxGeometry x="180" y="280" width="58" height="56.22" as="geometry" />
        </mxCell>
      </root>
    </mxGraphModel>
  </diagram>
</mxfile>
